<!DOCTYPE svg PUBLIC "-//W3C//DTD SVG 1.1//EN" "http://www.w3.org/Graphics/SVG/1.1/DTD/svg11.dtd">
<!-- Uploaded to: SVG Repo, www.svgrepo.com, Transformed by: SVG Repo Mixer Tools -->
<svg fill="#ffffff" height="800px" width="800px" version="1.1" id="Layer_1" xmlns="http://www.w3.org/2000/svg" xmlns:xlink="http://www.w3.org/1999/xlink" viewBox="-51.2 -51.2 614.40 614.40" xml:space="preserve" stroke="#ffffff">
<g id="SVGRepo_bgCarrier" stroke-width="0">
<rect x="-51.2" y="-51.2" width="614.40" height="614.40" rx="307.2" fill="#805d0d" strokewidth="0"/>
</g>
<g id="SVGRepo_tracerCarrier" stroke-linecap="round" stroke-linejoin="round"/>
<g id="SVGRepo_iconCarrier"> <g> <g> <path d="M501.289,256.353c5.915,0,10.711-4.797,10.711-10.711v-48.554c0-5.915-4.797-10.711-10.711-10.711h-25.064v-79.339 c0-2.084-0.608-4.125-1.751-5.869L446.41,58.324c-1.979-3.021-5.348-4.843-8.96-4.843s-6.982,1.821-8.96,4.843l-28.064,42.845 c-1.142,1.745-1.751,3.784-1.751,5.869v79.339h-44.132v-79.339c0-2.084-0.608-4.125-1.751-5.869l-28.064-42.845 c-1.979-3.022-5.348-4.843-8.96-4.843c-3.612,0-6.982,1.82-8.96,4.843l-28.064,42.845c-1.142,1.745-1.751,3.784-1.751,5.869 v79.339h-44.13v-79.339c0-2.084-0.608-4.125-1.751-5.869l-28.064-42.845c-1.979-3.021-5.348-4.843-8.96-4.843 s-6.982,1.821-8.96,4.843l-28.064,42.845c-1.143,1.744-1.751,3.783-1.751,5.869v79.339h-44.13v-79.339 c0-2.084-0.608-4.125-1.751-5.869L81.368,58.324c-1.979-3.021-5.348-4.843-8.96-4.843c-3.612,0-6.982,1.821-8.96,4.843 l-28.064,42.845c-3.241,4.949-1.857,11.588,3.091,14.83c4.949,3.239,11.589,1.856,14.83-3.091l19.103-29.166l17.352,26.491 v326.863H55.056V167.632c0-5.915-4.795-10.711-10.711-10.711c-5.916,0-10.711,4.797-10.711,10.711v18.745H10.711 C4.795,186.377,0,191.173,0,197.088v48.554c0,5.915,4.795,10.711,10.711,10.711h22.922v57.488H10.711 C4.795,313.841,0,318.638,0,324.552v48.554c0,5.915,4.795,10.711,10.711,10.711h22.922v63.989c0,5.915,4.795,10.711,10.711,10.711 h56.127c5.916,0,10.711-4.797,10.711-10.711v-63.989h44.13v63.989c0,5.915,4.795,10.711,10.711,10.711h56.127 c5.916,0,10.711-4.797,10.711-10.711v-63.989h44.131v63.989c0,5.915,4.797,10.711,10.711,10.711h56.127 c5.915,0,10.711-4.797,10.711-10.711v-63.989h44.131v63.989c0,5.915,4.797,10.711,10.711,10.711h56.127 c5.915,0,10.711-4.797,10.711-10.711v-63.989h25.064c5.915,0,10.711-4.797,10.711-10.711v-48.554 c0-5.915-4.797-10.711-10.711-10.711h-25.064v-57.488H501.289z M476.224,207.799h14.353v27.132h-14.353V207.799z M33.633,362.395 H21.423v-27.132h12.211V362.395z M33.633,234.931H21.423v-27.132h12.211V234.931z M155.314,362.395h-44.13v-27.132h44.13V362.395z M155.314,313.841h-44.13v-57.488h44.13V313.841z M155.314,234.931h-44.13v-27.132h44.13V234.931z M211.441,437.096h-34.705 V110.233l17.352-26.491l17.352,26.491V437.096z M276.994,362.395h-44.131v-27.132h44.131V362.395z M276.994,313.841h-44.131 v-57.488h44.131V313.841z M276.994,234.931h-44.131v-27.132h44.131V234.931z M333.121,437.096h-34.705V110.233l17.352-26.491 l17.352,26.491V437.096z M398.674,362.395h-44.131v-27.132h44.131V362.395z M398.674,313.841h-44.131v-57.488h44.131V313.841z M398.674,234.931h-44.131v-27.132h44.131V234.931z M420.097,437.096V110.233l17.352-26.491l17.351,26.491v326.863H420.097z M490.577,335.264v27.132h-14.353v-27.132H490.577z"/> </g> </g> <g> <g> <path d="M44.345,124.872c-5.916,0-10.711,4.797-10.711,10.711v2.678c0,5.916,4.795,10.711,10.711,10.711 c5.916,0,10.711-4.797,10.711-10.711v-2.678C55.056,129.669,50.261,124.872,44.345,124.872z"/> </g> </g> </g>
</svg>