<!DOCTYPE svg PUBLIC "-//W3C//DTD SVG 1.1//EN" "http://www.w3.org/Graphics/SVG/1.1/DTD/svg11.dtd">
<!-- Uploaded to: SVG Repo, www.svgrepo.com, Transformed by: SVG Repo Mixer Tools -->
<svg fill="#ffffff" version="1.1" id="Capa_1" xmlns="http://www.w3.org/2000/svg" xmlns:xlink="http://www.w3.org/1999/xlink" viewBox="-191.02 -191.02 871.84 871.84" xml:space="preserve" width="206px" height="206px" stroke="#ffffff">
<g id="SVGRepo_bgCarrier" stroke-width="0" transform="translate(0,0), scale(1)">
<rect x="-191.02" y="-191.02" width="871.84" height="871.84" rx="435.92" fill="#805d0d" strokewidth="0"/>
</g>
<g id="SVGRepo_tracerCarrier" stroke-linecap="round" stroke-linejoin="round" stroke="#CCCCCC" stroke-width="1.9592000000000003"/>
<g id="SVGRepo_iconCarrier"> <g> <g> <rect x="204.95" y="387.2" width="80.5" height="102.6"/> <path d="M0.05,0v489.8h178.4V372.4c0-8.2,5.8-14.8,13.2-14.8h106.5c7.4,0,13.2,6.6,13.2,14.8v117.4h178.4V0H0.05z M114.75,312.5 h-54v-54h54V312.5z M114.75,211.5h-54v-54h54V211.5z M114.75,110.4h-54V56h54V110.4z M219.65,312.5h-54.4v-54h54v54H219.65z M219.65,211.5h-54.4v-54h54v54H219.65z M219.65,110.4h-54.4V56h54v54.4H219.65z M324.65,312.5h-54.4v-54h54v54H324.65z M324.65,211.5h-54.4v-54h54v54H324.65z M324.65,110.4h-54.4V56h54v54.4H324.65z M429.25,312.5h-54v-54h54V312.5z M429.25,211.5 h-54v-54h54V211.5z M429.25,110.4h-54V56h54V110.4z"/> </g> </g> </g>
</svg>